{
    "asset" : {
        "generator" : "Khronos glTF Blender I/O v1.5.17",
        "version" : "2.0"
    },
    "scene" : 0,
    "scenes" : [
        {
            "name" : "Scene",
            "nodes" : [
                0
            ]
        }
    ],
    "nodes" : [
        {
            "mesh" : 0,
            "name" : "dicemodel_d2"
        }
    ],
    "materials" : [
        {
            "doubleSided" : true,
            "emissiveFactor" : [
                1,
                1,
                1
            ],
            "emissiveTexture" : {
                "index" : 0
            },
            "name" : "dicemodel_d2",
            "normalTexture" : {
                "index" : 1
            },
            "pbrMetallicRoughness" : {
                "baseColorTexture" : {
                    "index" : 2
                },
                "metallicRoughnessTexture" : {
                    "index" : 3
                }
            }
        }
    ],
    "meshes" : [
        {
            "name" : "Mesh",
            "primitives" : [
                {
                    "attributes" : {
                        "POSITION" : 0,
                        "NORMAL" : 1,
                        "TEXCOORD_0" : 2,
                        "COLOR_0" : 3
                    },
                    "indices" : 4,
                    "material" : 0
                }
            ]
        }
    ],
    "textures" : [
        {
            "sampler" : 0,
            "source" : 0
        },
        {
            "sampler" : 0,
            "source" : 1
        },
        {
            "sampler" : 0,
            "source" : 2
        },
        {
            "sampler" : 0,
            "source" : 3
        }
    ],
    "images" : [
        {
            "mimeType" : "image/png",
            "name" : "dicemodel_d2_emissiveMap.webp",
            "uri" : "textures/dicemodel_d2_emissiveMap.webp"
        },
        {
            "mimeType" : "image/png",
            "name" : "dicemodel_d2_normalMap.webp",
            "uri" : "textures/dicemodel_d2_normalMap.webp"
        },
        {
            "mimeType" : "image/png",
            "name" : "dicemodel_d2_baseColor.webp",
            "uri" : "textures/dicemodel_d2_baseColor.webp"
        },
        {
            "mimeType" : "image/png",
            "name" : "dicemodel_d2_metalRoughMap.webp",
            "uri" : "textures/dicemodel_d2_metalRoughMap.webp"
        }
    ],
    "accessors" : [
        {
            "bufferView" : 0,
            "componentType" : 5126,
            "count" : 170,
            "max" : [
                90.24105072021484,
                90.24124145507812,
                4.5209221839904785
            ],
            "min" : [
                -90.24105072021484,
                -90.24101257324219,
                -4.519505023956299
            ],
            "type" : "VEC3"
        },
        {
            "bufferView" : 1,
            "componentType" : 5126,
            "count" : 170,
            "type" : "VEC3"
        },
        {
            "bufferView" : 2,
            "componentType" : 5126,
            "count" : 170,
            "type" : "VEC2"
        },
        {
            "bufferView" : 3,
            "componentType" : 5123,
            "count" : 170,
            "normalized" : true,
            "type" : "VEC4"
        },
        {
            "bufferView" : 4,
            "componentType" : 5123,
            "count" : 720,
            "type" : "SCALAR"
        }
    ],
    "bufferViews" : [
        {
            "buffer" : 0,
            "byteLength" : 2040,
            "byteOffset" : 0
        },
        {
            "buffer" : 0,
            "byteLength" : 2040,
            "byteOffset" : 2040
        },
        {
            "buffer" : 0,
            "byteLength" : 1360,
            "byteOffset" : 4080
        },
        {
            "buffer" : 0,
            "byteLength" : 1360,
            "byteOffset" : 5440
        },
        {
            "buffer" : 0,
            "byteLength" : 1440,
            "byteOffset" : 6800
        }
    ],
    "samplers" : [
        {
            "magFilter" : 9729,
            "minFilter" : 9987
        }
    ],
    "buffers" : [
        {
            "byteLength" : 8240,
            "uri" : "dicemodel_d2.bin"
        }
    ]
}
